P2 
# ppg 
100 100 
255 
170 169 167 164 160 156 151 146 141 136 132 128 126 124 122 122 122 123 125 127 129 130 132 133 134 135 135 135 134 134 133 133 133 133 134 135 136 138 141 144 147 150 153 157 159 162 164 165 165 164 162 159 155 150 144 138 132 125 119 113 108 104 100 
98 96 96 96 98 100 
102 105 107 110 113 116 119 122 125 127 130 133 136 138 140 143 144 145 146 146 145 144 142 140 137 134 131 129 127 125 124 170 169 167 164 160 156 151 146 141 136 132 128 125 123 122 122 122 123 124 126 128 130 131 133 134 134 134 134 134 133 133 133 133 133 134 135 137 139 142 145 148 151 155 158 161 163 165 166 166 165 163 160 156 151 145 139 133 126 120 114 109 104 101 98 97 96 97 98 100 
102 105 108 110 113 116 119 122 125 127 130 133 135 138 140 142 144 145 146 146 145 144 142 140 137 134 131 129 127 125 125 169 168 166 163 159 155 150 145 140 135 131 128 125 123 121 121 121 122 123 125 127 129 130 131 132 133 133 133 133 133 133 133 133 133 134 136 138 140 143 146 150 153 157 160 163 165 167 168 168 167 165 162 158 153 147 141 134 128 121 115 110 106 102 100 
98 97 98 99 101 103 105 108 111 114 116 119 122 125 127 130 133 135 138 140 142 144 145 146 146 145 144 142 140 137 135 132 130 128 126 126 169 168 166 162 159 154 149 144 139 135 130 127 124 121 120 120 120 121 122 123 125 127 128 129 130 131 131 132 132 132 132 132 133 134 135 137 139 142 145 149 152 156 160 163 166 169 171 172 172 170 168 165 161 155 150 143 137 130 124 118 112 108 104 101 100 
99 99 100 
102 104 106 109 111 114 117 119 122 124 127 130 132 135 137 140 142 144 145 146 146 145 144 143 140 138 135 133 131 129 127 127 168 167 164 161 158 153 148 143 138 133 129 125 122 120 119 118 118 119 120 121 123 124 125 127 128 128 129 129 130 130 131 131 133 134 136 138 141 144 148 152 156 160 164 167 170 173 175 176 176 174 172 169 164 159 153 146 140 133 126 120 115 110 106 104 102 101 101 102 103 105 107 109 112 114 117 119 122 124 127 130 132 135 137 140 142 143 145 146 146 145 144 143 141 139 136 134 132 130 129 128 166 165 163 160 156 152 147 142 137 132 127 124 120 118 117 116 116 116 117 118 119 121 122 123 124 125 126 127 127 128 129 130 132 134 137 140 143 147 151 155 159 164 168 172 175 178 180 180 180 179 176 173 168 163 157 150 143 136 130 124 118 113 110 107 105 104 104 104 105 107 109 111 113 115 118 120 122 125 127 130 132 135 137 139 142 143 145 146 146 146 145 143 142 140 137 135 133 131 130 130 165 164 162 158 155 150 145 140 135 130 126 122 118 116 114 113 113 113 114 115 116 117 118 119 120 121 122 123 124 125 127 129 131 134 137 141 145 149 154 158 163 168 172 176 180 183 184 185 185 184 181 178 173 167 161 154 147 141 134 128 122 117 113 110 108 107 107 107 108 109 111 113 115 117 119 121 123 125 128 130 133 135 137 140 142 143 145 146 146 146 145 144 142 141 138 136 135 133 132 131 163 162 160 157 153 148 143 138 133 128 123 119 116 113 111 110 110 110 110 111 112 113 114 115 116 117 118 119 121 122 124 127 130 133 137 142 146 151 156 162 167 172 177 181 185 187 189 190 190 188 186 182 177 172 166 159 152 145 138 132 126 121 117 114 112 111 110 110 111 112 114 115 117 119 121 123 125 127 129 131 133 136 138 140 142 144 145 146 147 146 146 145 143 142 140 138 136 134 133 133 161 159 157 154 150 146 141 136 131 126 121 117 113 111 108 107 106 106 106 106 107 108 109 110 110 112 113 114 116 119 121 124 128 132 137 142 147 153 159 165 170 176 181 185 189 192 194 195 194 193 190 187 182 176 170 163 156 149 143 137 131 126 122 119 117 115 115 115 115 116 117 119 120 122 123 125 127 129 130 133 135 137 139 141 143 145 146 147 147 147 147 146 144 142 141 139 137 136 135 134 158 157 155 152 148 143 138 133 128 123 118 114 111 108 105 104 103 102 102 102 102 103 103 104 105 106 107 109 111 114 117 121 126 131 136 142 148 154 160 167 173 179 184 188 192 195 197 198 198 197 194 190 186 180 174 167 161 154 147 141 136 131 127 124 122 120 119 119 120 120 121 122 124 125 127 128 130 131 133 135 137 139 141 142 144 146 147 148 148 148 147 146 145 143 142 140 138 137 136 135 155 154 152 149 145 141 136 131 125 120 116 111 108 105 102 100 
99 98 97 97 97 97 98 98 99 100 
102 104 106 109 113 118 123 128 134 141 148 154 161 168 174 181 186 191 195 198 200 
201 201 200 
197 194 189 184 178 171 165 158 152 146 141 136 132 129 127 126 125 125 125 125 126 127 128 129 130 132 133 134 136 138 139 141 143 145 146 147 149 149 149 149 149 147 146 144 143 141 139 138 137 136 152 151 149 146 142 138 133 128 123 118 113 109 105 102 99 97 95 94 93 92 92 92 92 92 93 94 96 98 101 104 109 114 119 126 132 139 147 154 161 168 175 181 187 192 196 199 202 203 203 201 199 196 191 186 181 175 168 162 156 151 146 141 138 135 133 131 130 130 130 131 131 132 133 134 135 136 137 138 140 141 143 144 146 147 148 150 150 151 151 151 150 149 147 145 143 141 140 138 137 137 148 147 145 143 139 135 130 125 120 115 110 106 103 99 96 94 92 91 89 88 87 87 86 86 87 88 90 92 95 99 104 109 116 122 130 137 145 153 160 168 175 181 187 192 196 199 202 203 203 202 200 
197 193 188 183 177 171 166 160 155 150 146 143 140 138 137 136 136 136 137 137 138 139 140 140 141 142 143 144 145 147 148 149 150 151 152 153 153 153 152 151 150 148 146 144 142 140 139 137 137 145 144 142 139 135 131 127 122 117 113 108 104 100 
97 94 92 90 88 86 84 83 82 81 81 81 82 84 86 90 94 99 105 112 119 127 134 143 151 158 166 173 180 185 191 195 198 200 
202 202 201 199 196 193 188 184 179 174 168 163 159 155 151 148 146 144 143 142 142 142 143 143 144 145 145 146 147 148 148 149 150 151 152 153 154 155 155 156 156 155 154 153 151 149 147 144 142 140 138 137 137 140 139 138 135 132 128 124 119 115 110 106 102 99 95 93 90 88 85 83 81 80 78 77 76 76 77 79 81 85 89 94 101 108 115 123 131 140 148 156 163 170 177 183 188 192 195 197 199 199 199 197 195 192 188 184 179 175 170 166 162 159 155 153 151 149 148 148 148 148 149 149 150 151 151 152 153 153 154 155 155 156 157 158 158 159 159 159 158 157 156 154 152 150 147 144 142 140 138 136 136 136 135 133 131 128 124 120 116 112 108 104 101 97 94 92 89 86 84 81 79 77 75 74 73 72 73 74 77 80 85 90 97 104 111 119 128 136 144 152 160 167 173 179 184 188 191 193 195 195 195 194 192 189 186 183 179 175 172 168 165 162 159 157 155 154 154 153 154 154 155 155 156 157 158 158 159 159 160 161 161 161 162 162 163 163 162 162 161 160 158 156 153 150 147 144 141 139 137 135 134 131 130 128 126 124 121 117 114 110 107 103 100 
97 94 91 89 86 83 81 78 75 73 71 70 69 70 71 73 77 81 87 93 100 
108 116 124 132 140 148 155 162 168 174 178 182 186 188 190 190 190 190 188 186 184 181 178 175 172 169 167 164 162 161 159 159 158 158 159 159 160 161 162 163 164 164 165 166 166 166 167 167 167 167 167 167 166 165 164 162 160 157 154 151 147 144 140 137 135 133 133 125 124 123 121 119 117 114 111 108 105 102 99 97 94 92 89 86 84 81 78 75 72 70 69 68 68 69 71 74 78 84 90 97 105 113 121 129 136 144 151 157 163 168 172 176 179 182 183 184 185 184 183 182 180 178 176 174 172 170 168 166 164 163 163 162 162 163 163 164 165 166 167 168 169 170 171 171 172 172 172 172 172 172 172 171 170 169 167 165 162 159 155 151 147 143 139 136 133 131 130 119 119 118 116 115 113 110 108 106 104 101 99 97 95 93 90 88 85 82 79 76 73 70 68 67 67 68 70 73 77 82 88 95 102 110 117 125 132 139 146 152 157 162 166 169 172 175 176 178 178 178 178 177 176 175 174 172 171 169 168 167 166 165 165 165 165 166 167 168 169 171 172 173 175 176 176 177 177 178 178 178 177 177 176 175 174 172 170 167 164 160 156 151 147 142 138 134 131 129 128 113 112 112 111 110 108 107 105 104 102 101 99 98 96 94 92 90 87 84 81 77 74 72 69 68 68 68 70 73 77 81 87 94 100 
108 115 122 128 135 141 146 151 155 159 162 165 167 169 170 171 172 172 172 172 171 170 170 169 168 168 167 167 167 167 167 168 169 170 172 173 175 176 178 179 180 181 182 183 183 183 183 182 181 180 179 177 175 172 169 165 161 156 151 146 141 136 132 129 127 125 106 106 105 105 104 104 103 103 102 101 100 
100 
99 98 96 94 92 89 87 83 80 77 74 72 70 70 70 71 74 78 82 87 93 100 
106 113 119 125 131 136 141 145 149 152 155 158 160 162 163 164 165 166 166 167 167 167 167 167 167 167 167 167 167 168 169 170 171 173 174 176 178 180 182 183 185 186 187 187 187 187 187 186 186 184 183 181 178 175 171 167 162 157 151 145 140 135 130 127 124 123 99 99 99 99 99 99 99 100 
100 
100 
100 
100 
100 
99 98 97 95 93 90 87 84 81 78 75 74 73 73 74 77 80 84 89 94 100 
106 111 117 122 127 132 136 139 143 146 148 151 153 155 156 158 159 160 161 162 162 163 163 164 164 165 166 166 167 168 169 171 172 174 176 178 181 183 185 187 188 190 191 191 191 191 191 190 189 188 186 184 181 177 173 168 163 157 151 145 139 133 128 124 122 120 92 92 92 93 94 94 95 96 98 99 100 
100 
101 101 101 100 
98 96 94 91 88 85 82 80 78 77 77 79 81 83 87 91 96 101 106 111 116 120 124 128 131 134 137 140 142 144 146 148 150 151 153 154 155 156 158 159 160 161 162 163 164 165 167 168 170 171 173 175 178 180 183 185 187 189 191 193 194 195 195 195 195 194 193 191 189 186 183 179 174 169 163 157 151 144 138 132 127 123 120 118 85 85 86 87 88 90 91 93 95 97 99 101 102 103 103 102 102 100 
98 95 93 90 87 85 84 83 83 84 86 88 91 95 99 103 108 112 115 119 122 125 128 130 132 134 136 138 140 142 144 145 147 149 150 152 153 155 156 158 159 161 162 164 166 167 169 171 174 176 179 181 184 187 189 191 194 195 197 197 198 198 197 197 195 194 191 188 185 181 176 170 164 158 151 144 137 131 126 122 119 117 78 78 79 81 83 85 87 90 93 95 98 100 
102 104 105 105 105 104 102 100 
98 96 93 91 90 89 89 90 92 94 97 100 
103 107 110 113 116 119 121 123 125 127 128 130 132 133 135 137 138 140 142 144 145 147 149 151 153 155 156 158 160 162 164 166 169 171 173 176 179 182 185 188 191 193 195 197 199 200 
200 
200 
200 
199 198 196 193 190 186 182 177 171 165 158 151 144 137 131 125 121 118 116 71 72 73 75 77 80 83 87 90 94 97 100 
103 105 107 108 108 107 106 105 103 101 100 
98 97 96 96 97 99 101 103 105 108 111 113 115 117 119 121 122 123 124 125 127 128 129 131 132 134 136 138 140 141 143 145 147 149 151 153 156 158 160 162 165 167 170 173 176 179 182 185 189 192 194 197 199 200 
201 202 202 202 201 199 197 195 191 188 183 178 172 166 159 152 145 138 131 126 121 118 117 65 66 68 70 72 76 79 83 88 92 96 100 
103 106 108 110 111 111 111 110 109 107 106 105 104 104 104 105 106 108 110 112 113 115 117 118 119 120 121 121 122 123 123 124 125 126 128 129 131 132 134 136 138 140 142 144 146 148 151 153 155 158 161 163 166 169 172 176 179 182 186 189 192 195 197 200 
201 202 203 203 203 202 200 
198 196 193 189 184 179 173 167 160 153 146 139 132 127 123 120 118 60 61 63 65 68 72 76 80 85 90 94 99 103 106 109 112 113 114 115 114 114 113 112 112 111 111 112 113 114 115 116 118 119 120 121 122 122 122 122 122 122 122 122 123 123 124 125 127 128 130 132 133 135 137 139 141 143 145 148 150 153 156 159 162 165 168 171 175 179 182 186 189 192 195 198 200 
202 203 203 204 203 202 201 199 196 193 189 185 180 174 168 161 154 147 141 134 129 125 122 121 56 57 58 61 64 68 72 77 82 88 93 98 103 107 110 113 116 117 118 119 119 119 119 119 119 119 119 120 121 122 123 124 125 126 126 125 125 124 124 123 122 122 122 122 122 123 124 125 127 128 130 131 133 135 137 139 141 143 145 148 151 154 157 160 163 167 171 174 178 182 185 189 192 195 198 200 
202 203 203 203 203 202 201 199 196 193 190 185 180 175 169 162 156 149 143 137 132 128 125 124 52 53 55 58 61 65 70 75 80 86 91 97 102 107 111 115 118 120 122 123 124 124 125 125 125 126 127 128 128 129 130 131 131 131 130 129 128 127 125 124 123 122 122 122 122 123 124 125 126 127 129 130 132 133 135 137 139 141 143 146 149 152 155 158 162 166 169 173 177 181 185 188 192 195 197 199 201 202 203 203 202 201 200 
198 196 193 189 185 181 176 170 164 158 152 146 141 136 132 130 128 50 51 52 55 58 62 67 72 78 84 90 96 102 107 112 116 120 123 125 127 128 129 130 131 132 133 133 134 135 136 136 137 136 136 135 133 131 130 128 126 125 124 123 123 123 123 124 125 126 127 128 130 131 132 134 135 137 139 141 144 146 150 153 156 160 164 168 172 176 180 184 187 191 194 196 198 200 
201 201 201 201 200 
199 197 195 192 189 185 181 176 171 166 160 155 149 144 140 137 135 133 48 49 51 53 57 61 65 71 77 83 89 95 101 107 113 117 122 125 128 131 133 134 135 136 138 139 140 140 141 142 142 142 141 140 138 137 134 132 130 128 126 125 124 124 124 124 125 126 127 128 129 130 131 132 133 134 136 137 139 142 145 148 151 155 159 163 167 171 175 179 182 186 189 192 194 196 198 198 199 199 199 198 197 195 193 191 188 185 181 177 172 167 162 158 153 149 145 142 140 139 47 48 50 52 56 60 64 70 76 82 88 95 101 108 113 119 123 128 131 134 136 138 140 141 143 144 145 146 146 147 147 146 145 144 142 140 137 135 132 130 128 127 126 126 126 126 127 127 128 129 130 130 131 132 132 133 135 136 138 140 143 146 149 153 157 161 165 169 173 177 181 184 187 190 192 194 195 196 196 196 196 195 194 192 191 189 186 183 180 177 173 169 165 161 157 153 150 148 146 145 47 48 50 52 55 59 64 69 75 81 88 95 102 108 114 120 125 130 134 137 140 142 144 145 147 148 149 150 150 150 150 150 148 147 145 142 140 137 134 132 130 129 128 128 128 128 128 129 130 130 131 131 132 132 132 133 134 135 137 139 142 144 148 151 155 159 163 167 171 175 178 181 184 187 189 190 191 192 192 192 192 191 190 189 188 186 184 182 179 177 174 170 167 164 161 158 156 154 152 152 48 49 50 53 56 60 64 69 75 81 88 95 102 109 116 122 127 132 136 139 142 145 147 148 150 151 152 153 153 153 153 152 151 149 147 144 142 139 136 134 132 131 130 130 130 130 131 131 132 132 132 133 133 133 133 133 134 135 136 138 140 143 146 149 153 157 161 165 168 172 175 178 181 183 185 186 187 188 188 188 188 187 186 185 184 183 182 180 178 176 174 172 169 167 165 163 161 160 159 158 50 50 52 54 57 61 65 70 76 82 89 96 103 110 117 123 129 134 138 142 145 147 149 151 152 153 154 155 155 155 154 153 152 150 148 146 143 141 138 136 135 133 133 132 133 133 133 134 134 134 134 134 134 134 134 134 134 135 136 137 139 142 144 148 151 155 158 162 165 169 172 175 177 179 181 182 182 183 183 183 182 182 181 181 180 180 179 178 177 176 174 173 171 170 169 167 166 166 165 165 52 53 54 56 59 62 67 72 77 84 90 98 105 112 118 125 130 135 140 143 146 149 150 152 153 154 155 155 156 155 155 154 153 151 149 147 144 142 140 138 137 136 135 135 135 136 136 136 137 137 136 136 135 135 134 134 134 135 135 137 138 140 143 146 149 152 155 159 162 165 168 170 172 174 175 176 177 177 177 177 177 176 176 176 176 176 175 175 175 175 174 174 173 173 173 172 172 171 171 171 55 56 57 59 61 65 69 74 80 86 92 99 107 113 120 126 132 137 141 144 147 149 151 152 154 154 155 155 155 155 155 154 152 151 149 147 145 143 141 140 139 138 138 138 138 139 139 139 139 139 138 138 137 136 135 135 135 135 135 136 138 139 142 144 147 150 152 155 158 161 163 165 167 168 169 170 171 171 171 171 170 170 170 171 171 171 172 172 173 174 174 175 175 176 176 177 177 177 177 177 58 59 60 62 65 68 72 77 82 88 95 102 109 115 122 128 133 138 142 145 148 150 151 152 153 154 154 154 154 154 154 153 152 150 149 147 145 144 143 142 141 141 141 141 141 142 142 142 142 141 141 140 139 138 137 136 135 135 135 136 137 138 140 142 145 147 149 152 154 156 158 160 161 162 163 163 164 164 164 164 164 164 164 165 166 167 168 170 171 173 174 176 177 179 180 181 182 183 183 183 62 63 64 66 69 72 76 80 86 92 98 104 111 117 124 129 134 139 142 145 147 149 150 151 152 152 153 153 153 153 152 151 150 149 148 147 146 145 144 143 143 143 143 144 144 145 145 145 145 144 143 142 140 139 138 136 136 135 135 136 136 137 139 140 142 144 146 148 150 151 153 154 155 156 156 156 156 156 156 156 157 157 158 159 161 162 165 167 169 172 175 177 179 182 184 186 187 188 189 189 67 67 69 70 73 76 80 84 90 95 101 107 113 119 125 130 135 139 142 144 146 148 149 149 150 150 151 151 151 151 150 150 149 148 148 147 146 145 145 145 145 146 146 147 148 148 148 148 147 146 145 143 142 140 138 137 136 135 135 135 136 136 137 139 140 141 143 144 145 146 147 148 148 149 149 149 149 148 148 149 149 150 151 153 155 158 161 164 168 171 175 178 182 185 188 190 192 194 195 196 72 72 73 75 78 81 85 89 94 99 104 110 116 121 126 131 135 138 141 143 145 146 147 147 148 148 148 149 149 149 149 148 148 147 147 147 146 146 146 147 148 148 149 150 151 151 151 151 150 148 147 145 143 141 139 137 136 135 135 135 135 135 136 137 138 138 139 140 140 141 141 141 141 141 141 141 140 140 140 141 142 143 145 147 150 154 158 162 166 171 175 180 184 188 192 195 198 200 
201 202 77 78 79 81 83 86 90 94 98 103 108 113 118 122 127 131 134 137 140 141 143 144 145 145 146 146 146 147 147 147 147 147 147 147 147 147 147 147 148 149 150 151 152 153 154 154 154 153 152 150 148 146 144 141 139 138 136 135 134 134 134 134 134 135 135 135 135 135 135 135 135 134 134 133 133 132 132 132 132 133 134 136 139 142 145 150 155 160 165 171 176 182 187 192 196 200 
203 205 207 208 83 84 85 86 89 92 95 99 102 107 111 115 120 124 127 131 133 136 138 139 141 142 142 143 144 144 145 145 146 146 146 146 146 147 147 147 148 149 150 151 152 154 155 156 156 157 156 155 154 152 149 147 144 142 139 137 136 135 134 133 133 133 133 132 132 132 131 131 130 129 128 127 126 125 125 124 124 124 124 125 127 129 132 136 141 146 152 158 164 171 178 184 190 196 201 205 209 211 213 214 89 90 91 93 95 97 100 
104 107 111 114 118 121 124 127 130 132 134 136 137 138 139 140 141 142 143 144 144 145 145 146 146 147 147 148 148 149 150 152 153 155 156 158 159 159 159 158 157 155 153 150 147 144 141 139 137 135 134 133 132 131 131 130 130 129 128 127 126 124 123 121 120 119 117 117 116 116 116 116 118 120 123 126 131 136 143 149 157 164 172 179 186 193 200 
205 210 214 217 219 220 96 97 98 99 101 103 106 109 112 114 117 120 122 125 127 129 130 132 134 135 136 137 139 140 141 142 143 144 145 146 147 147 148 148 149 150 151 152 154 156 157 159 160 161 161 161 160 158 156 153 150 147 143 140 138 135 134 132 131 130 129 129 128 127 126 124 122 121 119 117 115 113 111 110 108 108 107 108 109 110 113 116 121 126 133 140 147 155 164 172 181 189 197 204 210 215 220 223 225 227 103 104 105 106 108 110 112 114 116 118 120 122 123 125 126 127 129 130 131 133 134 136 138 139 141 143 144 146 147 148 149 149 150 151 151 152 154 155 157 158 160 161 163 163 163 162 161 159 156 153 149 146 142 139 136 134 132 130 129 128 127 126 125 124 122 120 118 115 113 110 108 105 103 102 101 100 
100 
100 
101 104 107 111 116 122 129 137 145 155 164 173 183 192 200 
208 214 220 225 229 231 232 111 112 112 113 115 116 118 119 120 121 122 123 124 125 125 126 127 128 130 131 133 135 137 140 142 144 146 148 150 151 152 153 153 154 155 156 157 158 160 161 163 164 165 165 165 163 161 159 156 152 148 144 140 137 134 131 129 127 126 125 124 123 121 120 118 115 112 110 107 104 101 98 96 94 93 92 92 93 95 97 101 105 111 118 126 135 144 154 164 174 184 194 203 211 218 225 230 234 236 238 119 120 120 121 122 123 124 124 125 125 125 125 125 124 124 125 125 127 128 130 132 135 138 141 144 147 150 152 154 155 156 157 158 158 159 160 161 162 163 164 166 166 167 166 165 164 161 158 154 150 146 142 138 134 131 128 126 124 123 122 121 119 118 116 113 110 107 104 101 97 94 91 89 87 86 85 86 87 89 92 96 101 107 115 123 133 143 153 164 175 186 196 206 214 222 228 234 238 241 242 128 128 128 129 129 129 130 129 129 128 127 126 125 124 124 124 124 125 127 130 133 136 140 144 147 151 154 157 159 160 162 163 163 164 164 165 165 166 167 168 168 169 168 167 166 163 160 157 152 148 143 139 134 130 127 124 122 121 119 118 117 115 113 111 108 105 102 98 95 91 88 85 83 81 80 79 80 81 83 87 91 97 104 112 121 131 142 153 164 176 187 198 208 217 225 231 237 241 244 245 137 137 137 137 137 136 136 135 133 131 130 128 126 124 123 123 124 125 127 130 134 138 143 147 152 156 160 163 165 167 168 169 170 170 170 170 170 171 171 171 171 171 170 168 166 163 159 154 150 145 140 135 130 126 123 120 118 116 115 114 112 111 109 106 103 100 
96 93 89 85 82 79 77 75 74 74 75 76 79 83 88 94 101 110 119 130 141 152 164 176 188 198 209 218 226 233 239 243 246 247 146 146 145 145 144 143 142 140 137 135 132 129 127 125 123 123 123 125 128 131 136 141 146 152 157 162 166 169 172 174 176 176 177 177 177 176 176 176 175 175 174 172 171 168 165 161 157 152 146 141 135 130 126 122 118 116 113 112 110 109 108 106 104 101 98 95 91 87 83 80 77 74 72 70 70 70 71 73 76 80 85 92 100 
108 118 129 140 152 164 176 188 199 209 218 227 234 239 243 246 248 155 155 154 153 152 150 148 145 142 138 134 131 128 125 124 123 124 126 129 133 138 144 150 157 163 168 173 177 180 182 183 184 184 184 183 183 182 181 179 178 176 174 171 168 164 159 154 148 142 136 131 125 121 117 113 111 109 107 105 104 103 101 99 96 93 90 86 82 79 75 72 70 68 66 66 66 68 70 74 78 84 91 99 108 118 128 140 152 164 176 187 198 209 218 226 233 238 242 245 247 164 164 163 161 159 157 154 150 146 141 137 133 129 126 124 124 125 127 131 135 141 148 155 162 169 175 180 184 188 190 191 192 192 191 190 189 188 186 184 181 179 175 171 167 162 156 150 144 138 132 126 120 115 111 108 106 104 102 101 99 98 96 94 91 88 85 82 78 74 71 68 66 64 64 63 64 66 69 72 77 83 90 98 107 118 128 140 152 163 175 186 197 207 216 224 230 236 240 242 244 173 172 171 169 167 163 159 155 150 144 139 134 130 127 125 125 126 128 133 138 145 152 160 167 174 181 187 191 195 198 199 200 
199 199 197 195 193 191 188 184 181 176 171 166 160 153 147 140 133 127 120 115 110 106 103 101 99 97 96 95 93 92 90 87 84 81 78 74 71 68 65 63 62 62 62 63 65 68 72 77 83 91 99 108 118 129 140 152 163 174 185 196 205 213 221 227 232 236 238 239 181 181 179 177 173 169 165 159 153 147 141 136 131 128 126 125 127 130 135 141 148 156 164 172 180 187 193 198 202 205 206 207 206 205 203 201 198 195 191 187 182 177 171 164 157 150 143 135 128 121 115 110 105 101 98 96 94 93 92 91 89 88 86 83 81 78 74 71 68 66 63 62 61 61 61 63 65 69 73 78 85 92 100 
109 119 130 141 152 163 174 184 194 202 210 217 223 227 230 233 234 189 188 186 183 180 175 169 163 157 150 143 138 133 129 127 126 128 131 136 143 150 159 168 176 184 192 198 204 208 210 212 213 212 211 209 206 203 199 194 189 183 177 170 163 155 147 139 131 123 116 110 105 100 
96 94 92 90 89 88 87 86 84 83 80 78 75 72 69 67 64 63 61 61 61 62 64 66 70 75 80 87 94 102 112 121 131 142 152 163 173 182 191 199 206 212 217 221 224 226 227 196 195 193 189 185 180 173 167 159 152 145 139 133 129 127 127 129 132 138 145 153 161 170 179 188 196 202 208 212 215 217 217 217 215 213 210 206 202 197 191 184 177 169 161 152 144 135 127 119 112 106 100 
96 93 90 88 87 86 85 84 83 82 81 79 76 74 71 69 66 64 63 62 62 62 63 65 68 72 77 83 89 97 105 114 124 133 143 153 163 172 181 189 196 202 207 212 215 217 219 220 202 201 198 194 189 183 177 169 161 153 146 139 134 130 127 127 129 133 138 146 154 163 172 181 190 198 205 210 215 218 219 220 220 218 216 213 209 204 198 192 184 176 168 159 150 141 132 123 115 108 102 97 93 89 87 86 85 84 83 83 82 81 80 78 76 74 71 69 67 65 64 63 63 64 66 68 71 75 80 86 93 100 
108 117 126 136 145 155 164 172 180 187 193 198 202 206 208 210 211 212 207 205 202 198 193 186 179 171 162 154 146 139 134 129 127 127 129 133 138 146 154 163 172 182 190 198 205 211 215 219 221 222 221 220 218 215 210 205 199 192 184 176 167 157 147 138 129 120 112 105 99 94 90 87 86 84 84 83 83 83 82 81 80 78 77 75 73 71 69 67 66 66 66 67 68 71 74 78 84 90 96 104 112 121 130 139 148 156 164 172 179 185 190 194 197 200 
201 203 204 204 210 208 205 200 
195 188 180 171 163 154 146 139 133 128 126 126 128 132 138 145 153 162 171 181 189 197 204 210 215 218 220 221 221 220 218 215 211 205 199 192 184 175 165 155 145 136 126 117 110 103 97 92 89 87 85 84 84 84 84 84 83 83 82 80 79 77 75 73 72 70 69 69 69 70 72 74 78 82 87 93 100 
108 116 124 133 141 150 158 165 172 178 183 187 190 192 194 195 196 196 196 211 209 206 201 195 188 180 171 162 153 145 137 131 127 125 124 126 130 136 143 151 160 169 178 187 195 201 207 212 215 218 219 219 219 217 214 210 205 198 191 183 173 164 154 144 134 124 116 108 101 96 92 89 87 86 86 86 86 86 87 87 86 85 84 83 81 79 77 76 74 74 73 73 74 76 78 82 86 91 97 104 111 119 127 136 144 152 160 166 172 177 181 184 186 187 188 189 189 189 189 211 209 206 201 194 187 179 170 160 151 143 135 129 125 123 122 124 128 133 140 148 157 166 175 183 191 197 203 208 212 214 216 216 216 214 212 208 203 197 189 181 172 162 152 142 132 123 115 107 101 96 93 90 89 89 89 89 90 91 91 91 91 90 89 88 86 84 83 81 80 79 78 78 79 80 83 86 90 95 101 107 115 122 130 139 147 154 161 167 172 176 179 181 183 183 183 183 183 182 182 209 207 203 199 192 185 176 167 158 149 140 133 127 123 120 120 122 125 131 137 145 153 162 170 178 186 192 198 203 206 209 211 212 212 211 208 205 200 
194 187 179 170 161 151 141 131 123 115 108 102 98 95 93 92 92 93 94 95 96 97 97 97 97 96 94 93 91 89 87 86 84 84 83 84 85 87 90 94 98 104 110 118 125 133 141 148 156 162 167 172 175 178 179 179 179 179 178 177 176 176 205 203 200 
195 189 181 173 164 154 145 137 130 124 120 118 117 119 122 128 134 141 149 157 165 173 180 186 192 196 200 
203 205 206 207 206 204 201 197 191 185 177 168 159 150 140 131 122 115 109 104 100 
98 97 97 97 99 100 
102 103 105 105 105 105 104 102 101 99 97 94 93 91 90 89 89 90 91 94 97 102 107 113 120 127 135 142 149 156 162 167 171 174 176 177 176 176 174 173 172 171 170 200 
198 195 190 184 176 168 159 150 142 134 127 121 117 115 115 116 120 124 130 137 145 152 160 167 174 180 185 189 193 196 199 200 
201 200 
199 196 193 188 181 174 166 157 148 139 131 123 116 110 106 103 101 101 102 103 105 108 110 112 113 114 115 114 113 112 110 107 105 102 100 
98 96 95 95 95 96 98 101 105 109 115 121 128 135 143 150 156 162 166 170 172 174 174 173 172 170 169 167 166 165 193 192 189 184 178 171 163 155 146 138 130 124 118 114 112 112 114 117 122 127 134 141 148 155 161 168 173 178 182 186 189 192 193 194 194 193 191 188 183 178 171 163 155 147 138 130 123 117 112 108 106 106 106 108 110 113 116 119 121 123 125 125 125 123 122 119 117 114 111 108 105 103 101 100 
100 
100 
101 104 107 111 116 122 129 135 142 149 155 160 165 168 170 171 171 170 169 167 165 163 162 161 186 184 181 177 171 165 157 149 141 134 127 120 116 112 110 110 112 115 119 124 131 137 144 150 156 162 167 171 175 179 182 185 186 188 188 187 186 183 179 174 167 160 153 145 137 130 123 118 114 111 110 111 112 115 118 122 125 129 132 134 136 136 136 135 133 130 127 123 120 116 113 110 108 106 105 104 105 106 109 112 117 122 128 134 141 147 153 158 162 165 167 168 168 167 165 163 161 159 158 157 177 176 173 169 164 158 151 144 136 129 123 117 113 110 109 109 110 113 117 122 128 134 140 146 151 156 161 165 169 172 175 177 179 181 181 181 180 177 174 169 163 157 150 143 136 129 123 119 116 114 114 115 118 122 126 130 135 139 143 145 147 148 147 146 144 141 137 133 129 125 121 117 114 111 109 108 108 109 110 113 117 122 127 133 139 144 150 155 159 162 164 165 164 163 162 160 157 156 154 153 168 167 165 161 156 151 145 138 132 125 120 115 111 109 108 108 110 112 116 121 126 132 137 142 147 152 156 160 163 166 168 171 173 174 174 174 173 171 168 164 159 153 146 140 134 128 123 119 117 117 118 120 124 128 134 139 144 149 154 157 159 160 159 158 155 152 148 143 138 134 129 124 120 117 114 112 111 111 112 114 117 120 125 130 136 141 146 151 155 158 160 161 161 160 158 156 154 152 151 150 159 158 156 153 148 143 138 132 127 121 117 113 109 108 107 108 109 112 116 120 125 130 135 140 144 148 151 155 158 160 162 164 166 167 168 168 167 165 162 158 154 148 143 137 131 126 122 120 118 119 121 124 129 135 141 148 154 160 164 168 170 171 171 169 167 163 158 153 148 142 137 131 126 122 118 116 114 113 113 114 116 119 123 127 132 137 142 146 150 153 155 156 156 156 154 152 150 149 147 147 150 149 147 144 140 136 132 127 122 118 114 110 108 107 107 108 110 113 116 120 125 129 134 138 142 145 148 151 153 155 157 159 160 161 162 161 161 159 156 153 149 144 139 133 128 124 121 119 119 120 124 128 134 141 148 155 163 169 174 179 181 183 182 180 177 173 168 163 156 150 144 138 132 127 123 119 116 114 113 114 115 117 120 124 128 133 137 142 145 148 150 152 152 151 150 149 147 146 144 144 141 140 138 136 133 129 125 121 118 114 111 109 107 107 107 108 111 114 117 121 125 129 133 137 140 143 145 147 149 151 152 153 155 155 156 155 155 153 150 147 143 139 134 130 125 122 119 119 119 121 126 131 138 146 154 162 170 178 184 188 191 193 193 191 188 183 178 172 165 158 151 145 138 132 127 123 119 116 114 113 114 115 117 120 124 128 132 136 140 143 145 147 147 147 146 145 144 142 141 141 132 131 130 128 125 122 119 116 113 111 109 107 106 106 107 109 112 115 119 122 126 130 134 137 139 142 143 145 146 147 148 149 150 150 150 150 149 147 145 142 138 134 130 126 122 119 117 117 119 122 127 133 141 150 159 168 177 185 192 197 200 
202 202 200 
197 192 186 180 173 166 158 151 144 138 132 126 122 118 115 114 113 113 115 117 120 124 127 131 135 138 140 142 143 143 142 142 140 139 139 138 123 123 122 120 118 116 114 111 109 107 106 106 106 106 108 110 113 117 120 124 128 131 134 137 139 141 142 143 144 145 145 145 146 146 145 145 144 142 139 137 133 129 125 121 118 116 115 115 118 122 127 135 143 153 163 173 183 191 199 204 208 210 210 208 205 200 
194 188 180 173 165 157 150 143 136 130 125 120 116 114 112 112 112 114 116 119 123 126 130 133 135 137 138 139 139 138 137 137 136 136 116 115 114 113 112 110 108 107 105 104 104 104 105 107 109 112 115 118 122 126 130 133 136 138 140 141 142 142 143 143 143 142 142 142 141 140 139 137 135 132 128 125 121 118 115 113 112 113 116 121 127 135 145 155 166 177 187 196 204 210 214 216 217 215 212 207 201 195 187 179 171 163 155 148 140 134 128 122 118 114 112 111 110 111 113 115 118 122 125 128 131 133 134 135 135 135 135 134 134 133 109 109 108 107 106 105 104 103 102 102 102 103 104 107 109 113 116 120 124 128 132 135 137 139 141 142 142 142 142 141 141 140 140 139 138 137 135 133 130 127 124 121 117 114 111 110 110 111 114 120 127 135 145 156 167 179 189 199 207 214 219 221 222 221 218 213 207 201 193 185 177 169 161 153 145 138 131 125 120 115 112 110 109 109 110 112 114 117 120 123 126 128 130 131 132 132 132 132 131 131 103 103 102 102 101 100 
99 99 99 99 100 
102 104 107 110 114 118 122 126 130 134 137 139 141 142 143 143 142 142 141 140 139 138 136 135 134 132 129 127 124 120 117 114 111 108 107 107 109 112 118 125 134 145 156 168 179 191 201 209 216 221 225 226 225 222 218 212 206 199 191 182 174 166 157 149 141 134 128 122 117 113 110 108 107 108 109 111 114 117 119 122 125 127 128 129 129 130 130 130 129 99 98 98 97 97 96 96 96 96 97 98 101 103 107 111 115 119 124 128 133 136 139 142 143 144 144 144 143 142 141 140 138 137 135 133 131 129 127 124 121 117 114 111 108 105 104 105 107 110 116 124 133 143 155 167 179 190 201 210 217 223 226 228 227 225 221 216 210 203 195 187 179 170 162 153 145 138 131 124 118 114 110 108 106 106 107 108 111 113 116 119 121 123 125 126 127 128 128 128 128 95 95 95 94 94 93 93 93 94 95 97 100 
103 107 111 116 121 126 131 135 139 142 144 146 146 146 146 145 143 142 140 138 136 134 132 130 128 125 122 119 115 112 108 105 103 102 102 104 108 114 122 131 141 153 165 177 189 200 
209 217 222 226 228 228 227 223 219 213 206 199 191 183 174 166 157 149 141 133 126 120 115 111 107 106 105 105 106 108 110 113 116 118 121 123 124 125 126 126 126 127 93 93 92 92 92 91 91 92 93 94 96 99 103 107 112 117 123 128 133 137 141 144 147 148 149 149 148 147 145 143 141 139 137 134 132 129 127 124 121 117 113 110 106 103 101 100 
100 
102 106 112 119 128 139 150 163 175 186 197 206 214 221 225 227 228 227 224 220 215 209 202 194 186 178 170 161 153 144 136 129 122 116 112 108 105 104 104 105 106 108 111 113 116 118 120 122 123 124 125 125 125 92 92 91 91 91 90 91 91 92 94 96 100 
104 108 113 119 124 130 135 140 144 147 150 151 152 152 151 149 147 145 143 140 138 135 132 130 127 123 120 116 112 108 105 102 100 
98 99 100 
104 110 117 126 136 147 159 171 183 193 203 211 218 222 225 226 226 224 220 216 210 204 197 189 181 173 164 156 147 139 132 124 118 113 109 106 104 103 104 105 107 109 112 114 117 119 120 122 123 123 124 124 92 92 92 91 91 91 91 91 93 94 97 101 105 110 115 121 126 132 138 143 147 151 153 155 155 155 154 152 150 148 145 143 140 137 134 130 127 123 120 116 112 108 104 101 98 97 97 99 102 107 114 123 133 144 155 167 178 189 198 207 213 218 222 224 224 222 220 216 211 205 198 191 183 175 167 158 150 142 134 127 120 115 110 107 105 104 104 105 106 108 110 113 115 117 119 120 121 122 122 123 93 93 93 92 92 92 92 93 94 96 99 102 106 111 117 123 129 135 141 146 150 154 157 159 159 159 158 156 154 152 149 146 142 139 136 132 128 124 120 116 111 107 103 100 
97 96 95 97 100 
105 112 120 129 140 151 162 173 183 193 201 208 213 217 220 220 220 218 214 210 205 199 192 185 177 169 161 152 144 136 129 123 117 112 109 106 105 104 105 106 108 110 112 114 116 117 119 120 120 121 121 95 95 95 95 94 94 94 95 96 98 101 105 109 114 120 126 132 138 144 150 154 158 161 163 164 164 163 161 159 156 153 149 146 142 138 134 130 125 121 116 111 107 102 99 96 94 94 95 98 103 109 117 126 135 146 157 167 177 187 195 202 208 212 214 216 216 214 212 208 204 198 192 185 178 170 162 154 147 139 132 125 120 115 111 108 107 106 106 107 108 110 111 113 115 116 117 117 118 118 118 98 98 98 98 97 97 98 98 100 
102 104 108 112 117 123 129 135 142 148 153 158 162 166 168 169 169 168 166 164 161 158 154 150 146 141 137 132 127 122 117 112 107 102 98 95 93 93 94 96 100 
106 113 122 131 141 151 161 171 180 188 195 201 205 209 210 211 210 208 205 202 197 191 185 178 171 164 156 149 141 135 128 123 118 114 111 109 108 108 108 109 110 111 112 113 114 114 115 115 115 115 102 102 101 101 101 101 102 102 104 106 109 112 116 121 127 133 139 146 152 158 163 167 171 173 174 174 174 172 170 167 163 159 155 150 146 140 135 129 123 118 112 107 102 98 94 92 91 92 94 98 103 110 118 126 136 145 155 164 172 180 187 193 198 202 204 205 205 204 202 199 195 190 184 178 172 165 158 151 144 138 132 126 122 118 115 113 112 111 111 111 111 111 112 112 112 112 111 111 111 111 105 105 105 105 105 106 106 107 109 111 113 117 121 126 132 138 144 150 156 162 168 172 176 178 180 181 180 179 176 173 170 166 161 156 150 144 138 132 125 119 113 107 102 97 94 91 90 91 93 96 101 107 114 122 130 139 148 156 165 172 179 185 190 194 197 199 199 199 197 195 192 188 183 178 172 166 160 153 147 141 136 131 126 123 120 117 116 114 113 113 112 111 111 110 109 108 107 106 106 105 109 109 109 109 110 110 111 112 114 116 119 122 126 131 137 142 149 155 161 167 173 177 181 184 186 187 187 186 184 181 177 173 168 162 156 149 142 135 128 121 114 107 102 97 93 90 89 89 91 94 98 103 110 117 125 133 141 149 156 164 170 176 182 186 189 192 193 193 192 191 188 185 181 177 172 167 161 156 150 145 140 136 132 128 125 123 120 119 117 115 113 112 110 108 106 104 102 100 
99 99 112 112 113 113 114 115 116 117 119 122 125 128 132 137 142 148 154 160 166 172 178 183 187 190 193 194 194 193 192 189 185 180 175 169 162 155 147 139 131 123 115 108 102 96 92 89 88 88 89 92 95 100 
106 112 119 126 134 141 148 155 161 167 173 177 181 184 186 187 187 186 184 182 179 176 172 168 163 159 154 150 146 142 138 135 132 129 126 123 121 118 115 112 108 105 102 98 95 93 91 90 115 115 116 117 118 119 121 123 125 128 131 134 138 143 148 153 159 165 171 177 183 188 193 196 199 201 202 201 200 
197 193 189 183 176 169 161 152 143 134 126 117 109 102 96 92 89 87 86 87 90 93 97 102 108 113 120 126 133 139 146 152 158 163 168 172 176 178 180 181 181 181 179 177 175 172 169 165 162 158 155 151 148 145 142 139 135 132 129 125 121 117 112 107 102 97 92 88 85 82 81 117 118 118 120 121 123 125 128 131 134 137 140 144 148 153 158 164 170 176 182 188 193 198 202 206 208 209 209 208 206 202 197 191 184 176 168 158 148 138 129 119 111 103 97 92 88 86 85 86 88 90 94 98 103 108 113 119 125 131 137 143 148 154 159 164 168 171 174 175 176 177 176 175 174 172 170 168 166 163 160 158 155 152 149 146 143 139 134 130 124 118 112 105 98 91 85 80 75 72 70 119 119 121 122 124 127 130 133 136 139 143 146 150 154 159 164 169 175 181 187 193 198 204 208 212 215 217 217 217 214 211 206 200 
193 184 175 164 154 143 132 122 113 104 97 92 88 86 84 85 86 88 91 94 98 102 107 112 117 122 127 133 139 144 150 155 160 164 167 170 172 173 174 174 174 173 172 171 170 168 166 165 162 160 157 154 150 146 140 134 127 120 111 103 94 85 77 71 65 61 59 120 120 122 124 127 130 133 137 141 144 148 152 156 160 164 169 174 179 185 191 197 203 208 214 218 221 224 225 225 223 220 215 209 201 192 182 171 159 147 136 125 115 106 98 92 88 85 84 84 84 86 88 91 94 97 101 105 109 114 119 124 130 135 141 147 152 157 161 164 167 170 171 173 173 174 174 174 174 173 172 171 170 168 165 162 157 152 146 139 130 121 111 100 
90 79 70 61 54 50 47 120 121 123 126 129 133 137 141 145 149 153 157 161 165 169 173 178 183 189 195 201 207 213 218 223 227 230 232 232 231 228 223 217 209 200 
189 177 165 152 140 128 117 108 99 93 88 85 83 83 83 84 86 88 90 92 95 98 102 106 110 115 121 127 133 139 144 150 155 159 163 167 169 172 173 175 176 177 178 178 178 178 177 175 173 169 165 159 151 143 133 122 110 98 85 73 62 52 44 39 36 120 121 123 126 130 135 139 144 148 153 157 161 165 169 173 177 182 187 192 198 204 211 217 223 228 233 236 238 239 238 236 231 225 216 207 195 183 170 157 144 131 119 109 101 94 89 85 83 82 82 82 84 85 86 88 90 92 95 99 103 108 113 119 125 132 138 144 150 155 160 164 168 171 174 176 178 180 182 183 184 184 184 182 180 176 171 164 156 147 135 123 109 95 81 67 54 43 34 28 25 120 121 123 127 131 136 141 146 151 156 161 165 169 173 177 181 185 190 195 201 207 213 220 226 232 237 241 244 245 244 242 238 231 223 213 201 188 175 161 147 134 122 111 102 95 89 85 83 81 81 81 82 82 83 84 86 87 90 93 96 101 106 112 119 126 132 139 145 151 157 162 166 170 174 177 180 183 186 188 189 190 190 188 186 182 177 170 161 150 138 124 109 93 77 62 48 36 26 19 15 119 121 123 127 132 137 143 148 154 159 163 168 172 175 179 183 187 192 197 203 209 216 222 229 235 241 245 248 250 249 247 243 236 228 218 206 193 178 164 150 136 124 112 103 95 89 85 83 81 80 80 80 80 81 81 82 83 85 88 91 96 101 107 114 121 128 135 142 149 155 160 165 170 174 178 182 185 188 191 193 194 194 193 191 187 181 173 164 152 139 124 108 91 74 58 43 29 19 11 8 119 120 123 127 132 138 144 149 155 160 165 170 174 177 181 185 189 194 199 204 211 217 224 231 237 243 248 251 253 253 251 247 240 232 221 209 196 181 166 152 138 125 113 104 96 90 85 83 81 80 79 79 79 79 79 80 81 82 85 88 92 97 103 110 118 125 133 140 147 153 159 165 170 175 179 183 187 191 193 196 197 197 197 194 190 184 176 166 154 140 125 108 90 72 55 39 25 14 6 2 119 120 123 127 132 138 144 150 156 161 166 171 175 178 182 186 190 194 199 205 211 218 225 232 238 244 249 252 254 255 253 248 242 234 223 211 197 183 168 153 139 126 114 104 96 90 86 83 81 80 79 79 79 78 78 79 79 81 83 86 90 96 102 109 116 124 131 139 146 152 159 165 170 175 180 184 188 192 195 197 199 199 198 196 192 186 178 167 155 141 125 107 89 71 53 37 23 11 4 0 
